<svg width="601" height="156" viewBox="0 0 601 156" fill="none" xmlns="http://www.w3.org/2000/svg">
<path d="M122.852 153.906C141.148 148.281 154.681 135.497 161.741 117.176C163.833 111.755 165.018 110.194 165 98.9353C164.982 87.6945 163.78 85.7249 161.608 79.7541C156.604 66.0202 145.048 52.8985 132.868 47.1406C129.298 45.446 125.79 44.1951 125.069 44.3637C123.858 44.6387 98.6706 74.4663 98.6706 75.6197C98.6706 75.9125 101.573 76.152 105.125 76.1609C118.498 76.1786 127.562 84.0304 128.71 96.5754C129.645 106.929 123.493 116.795 114.1 119.98C105.669 122.845 105.41 122.677 89.527 103.868C85.7164 99.3612 82.2352 95.6704 81.7811 95.6704C80.8997 95.6704 80.232 96.4334 61.5351 118.773C54.7865 126.838 45.1532 138.291 40.1317 144.218C35.1103 150.153 31.0059 155.228 31.0059 155.503C31.0059 155.778 50.139 156 73.5189 156C115.694 156 116.085 155.982 122.852 153.906ZM43.7999 107.869C45.5004 105.793 50.8245 99.3079 55.6412 93.4524C60.4578 87.5969 64.9095 82.1495 65.5327 81.351C66.5833 80.0202 65.7286 80.3484 58.606 80.3484C52.1244 81.1558 50.3794 79.7363 47.4769 78.2015C37.6744 73.0113 33.1338 61.4511 36.5081 50.2547C38.8319 42.5005 48.2337 35.3231 55.9973 35.3586C59.6477 35.3852 60.44 35.8465 66.6189 41.64L83.7981 58.3881L84.6885 55.4338C85.1781 53.819 85.9171 51.9559 86.3356 51.3171C86.8431 50.5453 75.905 38.9074 74.5695 37.4967L72.5396 35.3408H83.0454C98.6706 35.3408 84.1095 45.6057 83.0767 46.8478C82.1062 48.0189 81.2549 49.049 83.6321 51.4178L83.7981 58.3881L99.641 41.0721C101.172 39.626 107.698 32.3155 114.127 24.8275C132.129 3.87187 134.284 1.27237 134.284 0.491638C134.284 0.0835266 114.554 -0.102787 90.4351 0.0569091C50.869 0.331941 46.1058 0.518255 41.6898 1.98213C31.1573 5.46883 25.4325 8.95552 17.5442 16.7096C11.1784 22.9644 9.25526 25.5373 6.29048 31.792C0.289693 44.4613 -1.35741 55.9505 1.09098 68.0075C4.18932 83.223 10.6709 93.3903 23.8121 103.637C28.2904 107.133 36.9444 111.631 39.1969 111.64C40.0338 111.64 42.0993 109.945 43.7999 107.869ZM47.6105 148.299C47.281 147.962 48.0912 146.569 49.4089 145.194L51.8128 142.692H82.1818C106.221 142.692 113.601 142.417 117.643 141.37C139.652 135.657 154.289 113.299 150.309 91.4651C148.956 84.0126 144.291 74.1913 139.866 69.4625C135.966 65.3016 127.027 58.408 125.523 58.408C123.965 58.408 124.276 57.1038 126.253 55.3206C127.953 53.7857 128.176 53.8301 133.028 56.7312C149.668 66.7122 159.302 88.8922 155.286 108.011C152.544 121.089 145.235 132.205 134.64 139.4C123.893 146.702 121.062 147.332 95.5545 148.095C66.3162 148.964 48.3583 149.044 47.6105 148.299ZM58.9977 134.618C58.8197 134.326 59.7545 133.057 61.09 131.797L63.5028 129.499L89.3222 129.215C114.723 128.94 115.213 128.905 119.593 126.74C125.496 123.83 130.927 118.125 134.31 111.276C136.652 106.53 137.079 104.658 137.106 98.9353C137.15 86.8605 130.936 76.7731 120.074 71.2902C117.608 70.0392 115.587 68.6907 115.587 68.2914C115.587 67.8833 116.352 66.863 117.278 66.0291C118.89 64.5741 119.166 64.5918 122.754 66.4106C127.686 68.9213 134.755 75.5665 137.551 80.3219C145.84 94.4106 142.849 114.612 130.847 125.569C129.556 126.758 125.487 129.189 121.819 130.99L115.142 134.264L87.2299 134.707C71.8807 134.947 59.1758 134.911 58.9977 134.618ZM71.8896 118.959C72.8957 117.62 75.5399 114.523 77.7569 112.084L81.7811 107.648L84.1049 110.309C85.378 111.773 87.9778 114.692 89.8742 116.795C91.7706 118.906 93.3286 120.796 93.3286 121.009C93.3286 121.222 88.0935 121.399 81.6921 121.399H70.0555L71.8896 118.959ZM31.3887 99.6451C22.0225 94.1356 13.0391 82.6818 10.0566 72.4613C7.67049 64.2813 7.77732 50.9822 10.3058 42.8465C14.8554 28.19 25.8242 16.8871 41.5117 10.6856L47.4769 8.33448L81.2024 8.01509C99.7479 7.84652 115.24 8.03283 115.631 8.43207C116.032 8.84019 115.64 10.0379 114.768 11.0937C113.21 13.0012 112.773 13.0278 80.7751 13.3472C49.7205 13.6488 48.1625 13.7464 43.3725 15.645C37.0245 18.1647 31.5846 21.7667 26.3762 26.8858C11.8906 41.1076 9.6381 64.512 21.0788 81.8212C24.5421 87.0646 33.1249 94.8542 37.345 96.602C40.3009 97.8263 40.5858 99.2192 38.2888 101.295C36.7663 102.662 36.33 102.555 31.3887 99.6451ZM41.0131 89.8415C35.6089 87.1622 27.9076 79.1774 24.7736 72.9936C22.7704 69.0456 21.0788 68.1672 21.0788 57.0772L22.5478 47.318L26.0201 40.8415C29.9375 33.5398 34.309 29.3434 42.1261 25.3776C49.5069 21.6425 56.5849 21.0037 83.0187 21.7135L105.197 22.3167L102.606 24.6146L100.006 26.9213L75.077 27.1875L50.1479 27.4448L44.6457 30.0886C37.6477 33.4511 31.9318 39.6615 29.2342 46.8478C26.6522 53.7414 26.9994 63.5449 30.0889 70.6248C32.5284 76.2141 39.7667 83.1698 45.6517 85.583C47.8776 86.4968 49.6938 87.4638 49.7027 87.7388C49.7027 88.2357 46.2839 92.1216 45.8387 92.1216C45.7052 92.1216 43.5417 91.1013 41.0131 89.8415Z" fill="white"/>
<path d="M256.456 101.736C256.456 119.4 241.992 130.024 224.328 130.024C206.664 130.024 192.2 117.224 192.2 99.56H208.84C208.84 108.52 215.368 113.768 224.968 113.768C233.288 113.768 239.816 110.696 239.816 101.736C239.816 82.536 195.016 95.336 195.016 63.08C195.016 46.696 206.28 38.376 223.944 38.376C241.608 38.376 252.872 48.872 252.872 66.536H236.232C236.232 57.704 231.88 54.632 223.944 54.632C216.008 54.632 211.656 57.832 211.656 63.592C211.656 82.536 256.456 67.048 256.456 101.736ZM299.305 81.256H287.785V98.792C287.785 109.032 291.113 113.128 299.305 113.128V129.384C282.921 129.384 271.145 120.296 271.145 98.792V81.256H261.673V65H271.145V39.528H287.785V65H299.305V81.256ZM305.715 129V95.336C305.715 74.216 317.491 64.744 333.107 64.744H333.875V81H333.235C325.939 81 322.355 85.352 322.355 95.336V129H305.715ZM351.574 58.216C345.942 58.216 341.59 53.864 341.59 48.232C341.59 42.728 345.942 38.376 351.574 38.376C357.078 38.376 361.43 42.728 361.43 48.232C361.43 53.864 357.078 58.216 351.574 58.216ZM343.254 129V65H359.894V129H343.254ZM434.37 97C434.37 115.304 419.65 130.024 401.474 130.024C383.298 130.024 368.45 115.304 368.45 97C368.45 78.696 383.298 63.976 401.474 63.976C408.002 63.976 413.122 65.64 417.602 68.84V39.4H434.37V97ZM401.346 80.232C391.874 80.232 385.09 87.528 385.09 97C385.09 106.472 391.874 113.768 401.346 113.768C410.818 113.768 417.858 106.472 417.858 97C417.858 87.528 410.818 80.232 401.346 80.232ZM441.45 97.128C441.45 79.336 455.53 63.976 473.962 63.976C489.834 63.976 506.73 75.24 507.37 95.592C507.498 98.536 507.242 101.352 506.858 103.528H459.37C460.906 109.928 466.538 113.768 473.962 113.768C479.978 113.768 482.922 111.72 484.97 110.056L504.81 110.184C499.69 121.832 488.042 130.024 474.474 130.024C456.042 130.024 441.45 115.304 441.45 97.128ZM459.37 90.216H489.578C487.018 84.2 480.874 80.232 474.474 80.232C467.05 80.232 461.93 84.2 459.37 90.216ZM531.105 129H514.465V39.4H531.105V129ZM568.25 154.6C554.682 154.6 544.954 146.024 540.474 133.736H559.034C561.21 136.424 563.386 138.344 568.25 138.344C576.314 138.344 579.642 134.12 579.642 128.104V127.72C576.57 129 572.346 130.024 568.25 130.024C551.866 130.024 540.09 120.168 540.09 98.664V65H556.73V98.664C556.73 108.904 560.058 113.768 568.25 113.768C576.442 113.768 579.77 108.904 579.77 98.664V65H596.41V125.8C596.41 142.184 584.634 154.6 568.25 154.6Z" fill="white"/>
</svg>
