<svg width="228" height="228" viewBox="0 0 228 228" fill="none" xmlns="http://www.w3.org/2000/svg">
<rect width="228" height="228" rx="18" fill="#7C3AED"/>
<path d="M150.511 183.477C167.219 178.323 179.577 166.607 186.024 149.818C187.935 144.85 189.016 143.419 189 133.102C188.984 122.801 187.886 120.996 185.902 115.524C181.333 102.939 170.78 90.9142 159.658 85.6377C156.397 84.0848 153.194 82.9384 152.536 83.0929C151.43 83.345 128.429 110.679 128.429 111.736C128.429 112.004 131.08 112.224 134.324 112.232C146.535 112.248 154.812 119.443 155.861 130.939C156.715 140.427 151.097 149.468 142.519 152.387C134.82 155.013 134.584 154.859 120.08 137.623C116.6 133.492 113.421 130.11 113.006 130.11C112.201 130.11 111.592 130.809 94.5181 151.281C88.3554 158.672 79.5584 169.168 74.973 174.599C70.3875 180.038 66.6395 184.689 66.6395 184.941C66.6395 185.193 84.1114 185.396 105.461 185.396C143.974 185.396 144.332 185.38 150.511 183.477ZM78.3226 141.289C79.8755 139.387 84.7374 133.444 89.1359 128.078C93.5343 122.712 97.5995 117.72 98.1686 116.988C99.128 115.768 98.3475 116.069 91.8433 116.069C85.9244 116.809 84.3309 115.508 81.6804 114.102C72.729 109.346 68.5826 98.7518 71.664 88.4914C73.786 81.3856 82.3715 74.8082 89.4611 74.8407C92.7945 74.8651 93.5181 75.2879 99.1605 80.5969L114.848 95.9449L115.661 93.2375C116.108 91.7578 116.783 90.0504 117.165 89.4651C117.629 88.7577 107.64 78.0928 106.421 76.8001L104.567 74.8245H114.161C128.429 74.8245 115.132 84.2312 114.189 85.3694C113.303 86.4426 112.526 87.3865 114.697 89.5573L114.848 95.9449L129.316 80.0766C130.714 78.7514 136.673 72.052 142.544 65.1901C158.983 45.9865 160.95 43.6043 160.95 42.8888C160.95 42.5148 142.934 42.3441 120.909 42.4904C84.7781 42.7425 80.4284 42.9132 76.3958 44.2547C66.7777 47.4499 61.5499 50.6451 54.3465 57.7509C48.5334 63.4828 46.7773 65.8405 44.0699 71.5724C38.5901 83.1824 37.086 93.711 39.3218 104.76C42.1512 118.703 48.07 128.021 60.0702 137.411C64.1597 140.614 72.0623 144.736 74.1193 144.745C74.8835 144.745 76.7698 143.192 78.3226 141.289ZM81.8024 178.339C81.5016 178.03 82.2414 176.753 83.4447 175.493L85.6399 173.201H113.372C135.324 173.201 142.064 172.948 145.755 171.989C165.853 166.753 179.219 146.265 175.585 126.256C174.349 119.427 170.089 110.427 166.048 106.093C162.487 102.28 154.324 95.9631 152.95 95.9631C151.527 95.9631 151.812 94.768 153.617 93.1338C155.17 91.7272 155.373 91.7679 159.804 94.4265C174.999 103.573 183.796 123.899 180.13 141.419C177.626 153.403 170.951 163.591 161.276 170.184C151.462 176.875 148.877 177.453 125.584 178.152C98.8841 178.949 82.4853 179.022 81.8024 178.339ZM92.201 165.802C92.0384 165.534 92.8921 164.371 94.1116 163.217L96.3149 161.111L119.893 160.851C143.088 160.599 143.535 160.566 147.535 158.582C152.926 155.916 157.885 150.688 160.975 144.411C163.113 140.062 163.503 138.346 163.528 133.102C163.568 122.037 157.893 112.793 147.975 107.768C145.722 106.622 143.877 105.386 143.877 105.02C143.877 104.646 144.576 103.711 145.422 102.947C146.893 101.614 147.145 101.63 150.422 103.297C154.926 105.597 161.381 111.687 163.934 116.045C171.503 128.956 168.772 147.468 157.812 157.509C156.633 158.599 152.918 160.826 149.568 162.477L143.47 165.477L117.982 165.883C103.965 166.103 92.3636 166.07 92.201 165.802ZM103.974 151.452C104.892 150.224 107.307 147.387 109.331 145.151L113.006 141.086L115.128 143.525C116.291 144.867 118.665 147.541 120.397 149.468C122.128 151.403 123.551 153.135 123.551 153.33C123.551 153.525 118.771 153.688 112.925 153.688H102.299L103.974 151.452ZM66.9891 133.753C58.436 128.704 50.2326 118.207 47.509 108.841C45.3301 101.345 45.4276 89.1581 47.7366 81.7026C51.8912 68.2715 61.9077 57.9135 76.2332 52.2305L81.6804 50.076L112.478 49.7833C129.413 49.6288 143.56 49.7995 143.918 50.1654C144.283 50.5394 143.926 51.637 143.129 52.6045C141.706 54.3525 141.308 54.3769 112.088 54.6696C83.7293 54.946 82.3065 55.0354 77.9324 56.7753C72.1355 59.0843 67.1679 62.3852 62.4117 67.0763C49.1838 80.1091 47.1269 101.557 57.5742 117.419C60.7369 122.224 68.5745 129.362 72.4282 130.964C75.1275 132.086 75.3876 133.362 73.29 135.265C71.8997 136.517 71.5014 136.419 66.9891 133.753ZM75.7779 124.769C70.8428 122.313 63.8101 114.996 60.9483 109.329C59.119 105.711 57.5742 104.906 57.5742 94.7436L58.9157 85.8003L62.0865 79.8652C65.6638 73.174 69.6558 69.3284 76.7942 65.6942C83.5341 62.2713 89.9977 61.686 114.136 62.3364L134.389 62.8892L132.023 64.995L129.649 67.1088L106.884 67.3528L84.1195 67.5885L79.095 70.0113C72.7046 73.0927 67.485 78.7839 65.0216 85.3694C62.6638 91.6866 62.9809 100.671 65.8021 107.158C68.0297 112.281 74.6396 118.655 80.0137 120.866C82.0463 121.703 83.7049 122.59 83.713 122.842C83.713 123.297 80.591 126.858 80.1845 126.858C80.0625 126.858 78.0869 125.923 75.7779 124.769Z" fill="white"/>
</svg>
