<svg xmlns="http://www.w3.org/2000/svg" viewBox="0 0 200 130" fill="none">
  <!-- Motion lines -->
  <line x1="10" y1="55" x2="38" y2="55" stroke="rgba(124,58,237,0.25)" stroke-width="2.5" stroke-linecap="round"/>
  <line x1="4"  y1="67" x2="28" y2="67" stroke="rgba(124,58,237,0.18)" stroke-width="2" stroke-linecap="round"/>
  <line x1="14" y1="79" x2="34" y2="79" stroke="rgba(124,58,237,0.12)" stroke-width="1.5" stroke-linecap="round"/>

  <!-- Shadow -->
  <ellipse cx="115" cy="118" rx="42" ry="6" fill="rgba(124,58,237,0.12)"/>

  <!-- Back leg (trailing) -->
  <path d="M108 88 Q96 100 84 112" stroke="#8B5CF6" stroke-width="7" stroke-linecap="round" stroke-linejoin="round"/>
  <!-- Back shoe -->
  <path d="M84 112 Q78 116 74 113" stroke="#7C3AED" stroke-width="6" stroke-linecap="round"/>

  <!-- Body torso -->
  <path d="M110 60 Q116 74 112 88" stroke="#7C3AED" stroke-width="8" stroke-linecap="round"/>

  <!-- Front leg (leading) -->
  <path d="M112 88 Q122 98 130 108" stroke="#7C3AED" stroke-width="7" stroke-linecap="round" stroke-linejoin="round"/>
  <!-- Front shoe -->
  <path d="M130 108 Q138 112 140 108" stroke="#5B21B6" stroke-width="6" stroke-linecap="round"/>

  <!-- Back arm -->
  <path d="M114 68 Q104 76 98 82" stroke="#8B5CF6" stroke-width="6" stroke-linecap="round"/>

  <!-- Front arm -->
  <path d="M114 66 Q126 60 132 54" stroke="#7C3AED" stroke-width="6" stroke-linecap="round"/>

  <!-- Head -->
  <circle cx="114" cy="50" r="11" fill="#7C3AED"/>
  <!-- Face highlight -->
  <circle cx="117" cy="47" r="3.5" fill="rgba(255,255,255,0.15)"/>

  <!-- Small sparkles / stars -->
  <circle cx="148" cy="38" r="2.5" fill="rgba(139,92,246,0.6)"/>
  <circle cx="158" cy="52" r="1.5" fill="rgba(139,92,246,0.4)"/>
  <circle cx="155" cy="30" r="1.8" fill="rgba(124,58,237,0.5)"/>
  <circle cx="165" cy="42" r="1.2" fill="rgba(139,92,246,0.35)"/>
</svg>
